<svg width="2560" height="1000" viewBox="0 0 2560 1000" fill="none" xmlns="http://www.w3.org/2000/svg">
<circle cx="1890" cy="500" r="425" stroke="#00B894" stroke-width="50"/>
<path d="M2240 500C2240 569.223 2219.47 636.892 2181.01 694.45C2142.56 752.007 2087.89 796.867 2023.94 823.358C1959.99 849.849 1889.61 856.78 1821.72 843.275C1753.83 829.77 1691.46 796.436 1642.51 747.487C1593.56 698.539 1560.23 636.175 1546.73 568.282C1533.22 500.388 1540.15 430.015 1566.64 366.061C1593.13 302.107 1637.99 247.444 1695.55 208.986C1753.11 170.527 1820.78 150 1890 150" stroke="#00B894" stroke-width="50"/>
<path d="M2140 500C2140 532.83 2133.53 565.339 2120.97 595.671C2108.41 626.002 2089.99 653.562 2066.78 676.777C2043.56 699.991 2016 718.406 1985.67 730.97C1955.34 743.534 1922.83 750 1890 750C1857.17 750 1824.66 743.534 1794.33 730.97C1764 718.406 1736.44 699.991 1713.22 676.777C1690.01 653.562 1671.59 626.002 1659.03 595.671C1646.47 565.339 1640 532.83 1640 500" stroke="#00B894" stroke-width="50"/>
<path d="M2040 506C2040 525.698 2036.12 545.204 2028.58 563.403C2021.04 581.601 2009.99 598.137 1996.07 612.066C1982.14 625.995 1965.6 637.044 1947.4 644.582C1929.2 652.12 1909.7 656 1890 656" stroke="#00B894" stroke-width="50"/>
<path d="M1912.4 520.095C1902.08 563.018 1910.52 540.839 1892.76 542.444C1924.16 574.092 1973.88 643.096 1961.02 654.443C1944.94 668.627 1977.87 834.863 2153.54 821.746C2169.98 816.962 2236.93 850.936 2236.93 850.936C2233.84 781.507 2128.68 605.642 2028.96 634.667C1978.45 661.248 1916.71 502.21 1912.4 520.095Z" fill="#0984E3"/>
<path d="M521.575 346.525C518.975 351.075 516.158 354.433 513.125 356.6C510.308 358.55 506.733 359.525 502.4 359.525C497.85 359.525 492.867 357.9 487.45 354.65C482.25 351.183 475.967 347.392 468.6 343.275C461.233 339.158 452.567 335.475 442.6 332.225C432.85 328.758 421.258 327.025 407.825 327.025C395.692 327.025 385.075 328.542 375.975 331.575C366.875 334.392 359.183 338.4 352.9 343.6C346.833 348.8 342.283 355.083 339.25 362.45C336.217 369.6 334.7 377.508 334.7 386.175C334.7 397.225 337.733 406.433 343.8 413.8C350.083 421.167 358.317 427.45 368.5 432.65C378.683 437.85 390.275 442.508 403.275 446.625C416.275 450.742 429.6 455.183 443.25 459.95C456.9 464.5 470.225 469.917 483.225 476.2C496.225 482.267 507.817 490.067 518 499.6C528.183 508.917 536.308 520.4 542.375 534.05C548.658 547.7 551.8 564.275 551.8 583.775C551.8 605.008 548.117 624.942 540.75 643.575C533.6 661.992 522.983 678.133 508.9 692C495.033 705.65 478.025 716.483 457.875 724.5C437.725 732.3 414.65 736.2 388.65 736.2C373.7 736.2 358.967 734.683 344.45 731.65C329.933 728.833 315.958 724.717 302.525 719.3C289.308 713.883 276.85 707.383 265.15 699.8C253.45 692.217 243.05 683.767 233.95 674.45L259.625 632.525C261.792 629.492 264.608 627 268.075 625.05C271.542 622.883 275.225 621.8 279.125 621.8C284.542 621.8 290.392 624.075 296.675 628.625C302.958 632.958 310.433 637.833 319.1 643.25C327.767 648.667 337.842 653.65 349.325 658.2C361.025 662.533 375 664.7 391.25 664.7C416.167 664.7 435.45 658.85 449.1 647.15C462.75 635.233 469.575 618.225 469.575 596.125C469.575 583.775 466.433 573.7 460.15 565.9C454.083 558.1 445.958 551.6 435.775 546.4C425.592 540.983 414 536.433 401 532.75C388 529.067 374.783 525.058 361.35 520.725C347.917 516.392 334.7 511.192 321.7 505.125C308.7 499.058 297.108 491.15 286.925 481.4C276.742 471.65 268.508 459.517 262.225 445C256.158 430.267 253.125 412.175 253.125 390.725C253.125 373.608 256.483 356.925 263.2 340.675C270.133 324.425 280.1 310.017 293.1 297.45C306.1 284.883 322.133 274.808 341.2 267.225C360.267 259.642 382.15 255.85 406.85 255.85C434.583 255.85 460.15 260.183 483.55 268.85C506.95 277.517 526.883 289.65 543.35 305.25L521.575 346.525ZM956.313 332.875H814.613V731H727.188V332.875H585.488V261.05H956.313V332.875ZM1324.67 620.175C1329.43 620.175 1333.66 622.017 1337.34 625.7L1371.79 663.075C1352.72 686.692 1329.22 704.783 1301.27 717.35C1273.53 729.917 1240.17 736.2 1201.17 736.2C1166.28 736.2 1134.87 730.242 1106.92 718.325C1079.18 706.408 1055.46 689.833 1035.74 668.6C1016.02 647.367 1000.86 622.017 990.24 592.55C979.84 563.083 974.64 530.908 974.64 496.025C974.64 460.708 980.274 428.425 991.54 399.175C1002.81 369.708 1018.62 344.358 1038.99 323.125C1059.57 301.892 1084.06 285.425 1112.44 273.725C1140.82 261.808 1172.24 255.85 1206.69 255.85C1240.92 255.85 1271.26 261.483 1297.69 272.75C1324.34 284.017 1346.98 298.75 1365.62 316.95L1336.37 357.575C1334.63 360.175 1332.36 362.45 1329.54 364.4C1326.94 366.35 1323.26 367.325 1318.49 367.325C1315.24 367.325 1311.88 366.458 1308.42 364.725C1304.95 362.775 1301.16 360.5 1297.04 357.9C1292.92 355.083 1288.16 352.05 1282.74 348.8C1277.32 345.55 1271.04 342.625 1263.89 340.025C1256.74 337.208 1248.4 334.933 1238.87 333.2C1229.55 331.25 1218.72 330.275 1206.37 330.275C1185.35 330.275 1166.07 334.067 1148.52 341.65C1131.18 349.017 1116.23 359.85 1103.67 374.15C1091.1 388.233 1081.35 405.567 1074.42 426.15C1067.48 446.517 1064.02 469.808 1064.02 496.025C1064.02 522.458 1067.7 545.967 1075.07 566.55C1082.65 587.133 1092.83 604.467 1105.62 618.55C1118.4 632.633 1133.46 643.467 1150.79 651.05C1168.12 658.417 1186.76 662.1 1206.69 662.1C1218.61 662.1 1229.33 661.45 1238.87 660.15C1248.62 658.85 1257.5 656.792 1265.52 653.975C1273.75 651.158 1281.44 647.583 1288.59 643.25C1295.96 638.7 1303.22 633.175 1310.37 626.675C1312.53 624.725 1314.81 623.208 1317.19 622.125C1319.57 620.825 1322.07 620.175 1324.67 620.175Z" fill="#0984E3"/>
</svg>
